<svg width="50" height="50" viewBox="0 0 50 50" fill="none" xmlns="http://www.w3.org/2000/svg">
<g clip-path="url(#clip0_1_22)">
<path d="M35.2787 14.5827L22.6589 27.2026M9.62974 30.8037L12.576 27.8574M15.5223 34.3392L17.29 32.5714M20.8256 38.464L22.0041 37.2855M23.125 27.8904L25.5616 32.4283C26.484 34.1462 26.9452 35.0052 27.5085 35.2301C27.9976 35.4254 28.5503 35.3781 28.999 35.1024C29.5159 34.7849 29.8242 33.86 30.4408 32.0102L35.0489 18.1857C35.5917 16.5572 35.8633 15.7429 35.6701 15.2013C35.502 14.7302 35.1313 14.3594 34.6601 14.1913C34.1186 13.9982 33.3042 14.2697 31.6758 14.8125L17.8324 19.427C15.9878 20.0419 15.0654 20.3494 14.7479 20.8654C14.4721 21.3135 14.4242 21.8655 14.6185 22.3544C14.8423 22.9175 15.6977 23.3794 17.4086 24.3033L22.0426 26.8055C22.3044 26.9468 22.4352 27.0176 22.5497 27.1083C22.6514 27.1888 22.7432 27.2808 22.8235 27.3828C22.914 27.4976 22.9844 27.6285 23.125 27.8904Z" stroke="white" stroke-width="3" stroke-linecap="round" stroke-linejoin="round"/>
</g>
<defs>
<clipPath id="clip0_1_22">
<rect width="40" height="40" fill="white" transform="translate(0.505104 10.8579) rotate(-15)"/>
</clipPath>
</defs>
</svg>
