<svg width="100" height="100" viewBox="0 0 100 100" fill="none" xmlns="http://www.w3.org/2000/svg">
<path d="M85.098 33.402C81.912 33.402 79.322 35.994 79.322 39.178C79.322 39.952 79.48 40.69 79.758 41.366L62.66 57.28C61.744 56.668 60.646 56.308 59.464 56.308C58.864 56.308 58.284 56.406 57.728 56.582L52.264 49.698C52.672 48.896 52.912 48.016 52.912 47.09C52.912 43.906 50.322 41.314 47.136 41.314C43.95 41.314 41.36 43.906 41.36 47.09C41.36 47.382 41.414 47.662 41.456 47.946L27.666 58.76C26.772 58.194 25.722 57.852 24.586 57.852C21.4 57.852 18.81 60.444 18.81 63.628C18.81 66.814 21.4 69.406 24.586 69.406C27.772 69.406 30.362 66.814 30.362 63.628C30.362 63.04 30.248 62.482 30.084 61.948L43.418 51.492C43.454 51.522 43.48 51.562 43.516 51.59C44.538 52.414 45.824 52.868 47.138 52.868C47.902 52.868 48.644 52.718 49.33 52.436L54.584 59.056C54.024 59.956 53.688 60.986 53.688 62.084C53.688 65.27 56.278 67.862 59.464 67.862C62.648 67.862 65.24 65.27 65.24 62.084C65.24 61.552 65.144 61.048 65.01 60.56L82.482 44.3C83.272 44.706 84.152 44.956 85.1 44.956C88.284 44.956 90.876 42.364 90.876 39.18C90.876 35.996 88.284 33.402 85.098 33.402ZM24.586 65.402C23.606 65.402 22.81 64.606 22.81 63.624C22.81 62.646 23.606 61.848 24.586 61.848C25.566 61.848 26.362 62.644 26.362 63.624C26.364 64.606 25.566 65.402 24.586 65.402ZM46.026 48.474C45.604 48.132 45.36 47.628 45.36 47.088C45.36 46.11 46.156 45.312 47.136 45.312C48.116 45.312 48.912 46.108 48.912 47.088C48.912 47.562 48.728 48.008 48.394 48.342V48.344H48.392C47.688 49.044 46.45 48.814 46.026 48.474ZM59.464 63.86C58.484 63.86 57.688 63.064 57.688 62.082C57.688 61.526 57.94 61.016 58.384 60.674C58.392 60.668 58.404 60.666 58.412 60.658L58.414 60.656C58.632 60.494 58.982 60.306 59.466 60.306C60.444 60.306 61.242 61.102 61.242 62.082C61.24 63.062 60.444 63.86 59.464 63.86ZM85.098 40.954C84.118 40.954 83.322 40.158 83.322 39.178C83.322 38.198 84.118 37.402 85.098 37.402C86.076 37.402 86.874 38.198 86.874 39.178C86.874 40.158 86.078 40.954 85.098 40.954Z" fill="white" stroke="white" stroke-width="2"/>
</svg>
